<svg height="512pt" preserveAspectRatio="xMidYMid meet" viewBox="0 0 512 512" width="512pt" xmlns="http://www.w3.org/2000/svg"><path d="m2305 4389c4-6-31-10-87-11-15 0-26-3-24-7 3-4-14-6-37-6-49 1-69-4-62-15 3-4-10-6-28-5-19 2-40-3-51-13s-16-11-12-4c7 11 4 12-12 3-12-6-25-10-29-9s-19-4-32-11c-12-7-32-11-42-8s-17 1-13-4c5-8 0-10-38-13-7-1-16-4-19-9-3-4-16-10-30-12-13-3-25-9-27-14-2-6-9-8-16-5-8 3-20-2-29-10-8-8-17-12-21-9-3 3-15-2-26-12s-20-15-20-10c0 4-7 2-15-5s-15-9-15-6c0 4-7 0-16-8-8-9-19-14-24-11-4 3-11-2-14-11-3-8-10-12-16-9-5 3-10 1-10-5s-4-9-8-6c-7 4-69-32-117-69-10-8-23-15-27-15s-17-8-27-17c-35-32-51-44-51-38 0 3-13-8-30-25-16-17-30-28-30-25s-16-10-35-29c-19-20-35-33-35-30s-22-18-50-47-50-57-50-61c0-5-5-6-10-3s-10 2-10-2c0-5-18-28-39-51-22-23-37-42-34-42s-4-9-17-20-20-20-16-20c7 0-4-14-36-51-10-10-18-23-18-27 0-5-9-19-20-32s-20-29-20-36-5-14-10-16c-6-2-12-13-12-25-2-14-7-19-17-15-8 3-12 1-8-5s-3-24-15-39c-15-19-17-24-5-15 15 12 17 12 11-2-3-8-12-18-20-21-9-3-13-10-10-15s-1-12-10-15c-8-3-12-11-9-17 4-5-1-19-11-30-12-14-14-19-4-19 9 0 7-5-6-16-10-8-14-13-7-10 6 3 2-12-9-35-10-22-20-49-21-60-1-10-5-19-10-19-4 0-5-4-2-10 3-5 2-10-3-10s-9-10-8-22c1-13-5-29-12-37-10-10-11-16-2-21 9-6 9-9 1-14-6-4-9-12-6-17 4-5 2-9-4-9-5 0-8-11-6-25 1-14-2-28-7-31s-7-12-4-19c2-7-2-22-9-33-8-10-11-22-8-26 14-14 11-36-5-37-11 0-12-2-4-6 6-2 12-11 12-19 0-9-4-13-8-10-5 3-9-1-9-9s3-12 7-10 7-2 7-10-4-12-8-10c-4 3-7-81-7-185-1-115 3-192 9-196 7-4 6-10-1-19s-6-16 5-25c8-7 12-17 8-24-12-18-12-35-2-42 6-3 5-12-3-22s-9-13-1-9c6 4 14 3 18-3 3-5 1-10-6-10-8 0-8-4 1-15 7-8 9-15 5-15s-1-8 6-17c12-15 12-16-1-8s-13 7-1-8c7-9 10-17 6-17s-3-6 4-13c8-10 7-17-2-26-6-7-7-12-2-11 22 5 25-1 14-21-8-15-8-19 0-15 9 6 14-12 10-40 0-4 4-10 10-13 6-4 12-16 14-26 1-11 6-26 10-32 5-7 5-13 1-13s1-10 12-22c10-12 13-18 7-14-7 4-13 2-13-3 0-6 5-11 10-11 6 0 10-6 11-12 0-7 11-35 24-63 13-27 21-54 18-59-4-5-1-6 5-2 8 5 12 0 12-13 0-12 5-21 10-21 6 0 10-7 10-15s6-15 13-15c9 0 9-2-1-9-11-7-10-9 3-15 9-3 13-10 10-16-3-5-2-10 4-10 5 0 20-20 32-45s26-45 31-45c4 0 8-6 8-13s13-28 30-47c16-19 29-41 30-47 0-7 6-13 13-13 8 0 19-11 25-25 7-14 19-28 27-31 8-4 15-11 15-16 0-14 47-57 54-50 3 3 6 0 6-6 0-15 42-58 53-54 4 1 7-6 7-15s3-14 6-10c8 8 34-18 34-34 0-7 3-10 6-6 6 6 18-2 57-38 12-11 25-19 29-18 5 2 8-1 8-6s9-13 20-16c11-4 18-11 15-16-4-5 3-9 15-9s18-4 15-10c-3-5 6-12 20-16 14-3 25-9 25-13 0-3 9-12 21-19 17-11 20-11 14 0-5 7 2 3 14-10 12-12 26-20 31-17 4 3 10-2 14-10 3-8 12-15 21-15 8 0 15-4 15-9s13-11 29-14 35-13 44-21c8-8 17-12 21-9 3 4 6 1 6-5s7-9 15-6c8 4 15 2 15-4 0-5 7-13 16-16 10-4 13-2 8 6-4 7 6 3 22-8 45-32 58-38 50-26-6 10 31-4 77-29 10-5 22-7 27-4 6 4 10 2 10-2 0-5 12-10 27-11s29-6 33-11c3-5 12-9 20-9 31 2 51-2 46-10-2-4 13-7 35-6 21 0 39-3 39-7s9-6 20-4 20 0 20-4 18-7 40-7c25 1 39-3 36-10-3-8 8-9 35-4 21 4 36 4 34-1-3-4 3-8 12-8 10 0 30-2 45-4 18-3 25 0 21 7-5 8-3 8 8 0 16-13 403-18 395-5-3 3 4 7 14 7s16-4 14-8c-3-4 2-8 11-8s13 5 9 11c-4 7-1 10 7 7s22-1 33 4c13 7 16 7 12-1-8-13 21-4 43 13 11 8 13 8 8 0-4-7 0-14 8-17 8-4 12-1 9 6-3 8 10 13 38 15 68 4 78 6 78 14 0 4 6 5 14 2s17-1 20 4 18 7 33 5c22-4 25-2 13 6-12 9-9 11 15 10 17-1 42 3 56 9 15 6 30 8 33 5 3-4 6-1 6 6 0 8 7 11 15 7 8-3 15-1 15 5s4 8 9 4c5-3 12-1 16 5s11 8 16 4c5-3 16-1 23 5 8 7 19 10 24 9 6-2 18 6 26 17s16 15 16 8 18-2 45 14c25 13 45 22 45 18 0-3 7 1 16 9 8 9 21 16 28 16s26 10 42 22c16 13 25 16 20 8-4-8 1-6 11 6 10 11 26 20 36 18 9-1 15 1 13 4-5 9 20 32 27 26 3-3 15 4 27 16s28 19 36 16 13-2 10 2c-3 5 4 16 15 25 10 9 19 14 19 11s6 1 13 8c8 7 26 22 41 33 16 11 43 34 61 50 54 50 73 64 80 57 3-4 3 1 0 9-4 11 1 18 15 22 12 3 19 10 15 16-3 6 1 11 9 11 9 0 16 7 16 16 0 8 5 12 10 9 6-3 10-2 10 2 0 5 22 32 49 61 26 28 47 52 45 52-3 0 81 116 107 148 5 6 7 12 3 12-3 0 5 15 20 34 14 19 26 42 26 50 0 9 5 16 11 16 5 0 7 5 4 10-3 6-1 10 6 10s9 3 6 7c-4 3 1 12 11 20 9 8 11 12 5 8-9-4-11-1-7 9 3 9 11 13 17 9s8 0 4 11c-4 10 1 24 13 36 11 11 14 20 8 22-7 3-4 10 5 20 9 8 13 18 10 22-4 3-1 6 6 6s9 5 6 10c-4 6-2 17 4 24s8 22 4 31c-5 14-3 17 9 12 13-4 16-1 12 18-2 13 0 27 6 30 6 4 8 11 5 16-4 5-1 9 5 9s8 4 5 10c-3 5-1 19 6 31 9 17 8 20-3 13-11-6-11-5 1 9 7 9 10 17 5 17s-1 5 9 11c13 7 15 14 8 23-6 7-6 18-1 25 4 8 6 21 2 29-3 10-1 13 6 8 7-4 12-2 12 3 0 6-6 11-12 11-10 0-9 3 1 9 8 5 11 16 7 29-4 11-3 23 2 26s8 21 7 41c-1 19 2 35 5 35 4 0 7 88 7 195 1 144-2 193-11 188-6-4-6 0 2 9 9 11 10 18 2 23-5 3-10 11-10 16 0 6 4 8 8 5 5-3 9 1 9 9s-4 12-8 10c-4-3-9 9-11 25-3 17 0 30 4 30 5 0 2 7-7 16-14 15-14 17 2 30 17 13 17 14-2 7-11-3-17-3-13 2 4 4 2 15-5 23-10 13-9 14 3 7 13-8 13-7 1 8-7 9-10 17-6 17s2 6-4 14c-9 11-9 15 1 19 11 4 10 6 0 6-7 1-10 6-7 11 3 6 2 10-3 10-6 0-13 7-16 16-3 8-2 12 4 9 15-9 12 8-6 33-8 12-12 22-8 22 3 0 0 8-7 17-12 15-12 16 1 8 12-7 13-6 3 7-7 8-10 18-6 21 3 4 1 7-6 7s-10 4-6 9c3 5 1 12-5 16s-8 11-5 16c4 5 1 9-5 9s-8 5-5 10c3 6 2 10-4 10s-8 7-5 15c4 8 1 15-6 15-6 0-9 4-5 9 3 5 0 15-7 23-12 12-36 67-41 93-1 6-5 12-9 15-3 3-8 12-10 20s-12 23-23 33-14 16-5 12c11-5 10-2-2 7-9 8-18 20-20 28-2 7-11 22-20 32-10 10-18 25-18 34 0 8-4 12-10 9-5-3-10 0-10 8s-7 20-15 27-12 16-9 21-3 9-12 9c-10 0-15 3-11 6 6 7-1 17-54 72-20 21-44 50-54 65-9 15-21 24-26 21s-9-1-9 5-11 21-24 34c-14 14-22 28-18 33 4 4 2 4-5 1-6-4-33 13-61 40-27 27-74 66-105 88-32 22-57 43-57 47s-6 5-14 2c-7-3-16 2-19 10-4 9-13 16-22 16-8 0-15 5-15 11 0 5-4 7-10 4-5-3-10-2-10 3 0 9-70 47-82 44-5-1-8 2-8 6 0 5-16 14-35 22-19 7-31 18-28 23 3 6 1 7-6 3-6-4-28 2-47 13-19 12-32 15-29 9 4-7 1-6-7 2-7 8-20 17-28 19-48 11-80 23-80 30 0 4-9 8-20 9-42 4-50 6-50 12 0 5-18 9-57 12-7 1-13 6-13 11 0 6-3 7-7 4-3-4-13-1-21 6-13 10-14 9-8-1 7-11 4-12-13-3-12 7-25 9-30 6s-11-1-13 5-20 11-40 12c-21 1-36 4-34 7s-18 7-44 8c-27 2-59 7-72 12-15 6-31 5-42-1-14-8-17-7-12 1 4 6 6 11 4 12-2 0-99 3-216 5-133 3-211 1-208-5 7-10-19-9-30 2-4 3-16 2-27-4-10-6-17-7-14-2s-3 9-13 9-17-3-15-7zm343-703c7-4 12-2 12 6s3 9 8 3c4-5 25-10 47-10s47-3 55-7c8-3 42-12 75-19s66-17 74-23c12-9 13-8 6 4-5 9 0 8 13-4 12-11 25-16 29-13 3 4 15-1 26-10 15-13 18-14 12-3-6 10-2 10 12-3 11-10 31-20 44-22 13-3 25-9 27-15s8-8 13-4c5 3 9 0 9-6s5-8 10-5c6 3 10 1 10-5s5-8 10-5c6 3 10 1 10-4 0-6 7-11 15-11 9 0 18-7 21-15 4-8 10-12 15-9s9 1 9-5c0-5 8-12 18-15s36-23 57-43c22-21 43-37 47-36 4 2 10-6 13-17 4-11 11-18 16-15 5 4 9 1 9-4 0-6 14-24 30-39 17-16 30-34 30-40s9-14 20-17 20-11 20-16c0-6-6-7-12-4-7 4-4-2 7-12 29-27 70-87 54-79-8 4-5 0 5-8 11-9 16-16 10-16-5 0-4-4 2-8 17-12 46-81 38-94-4-6-3-8 3-5 10 6 29-37 25-55-1-5 3-8 9-8s9-7 6-15c-4-8-2-17 4-20 5-4 7-11 4-16-4-5 1-12 10-15 13-6 14-8 3-15-10-7-10-9 2-9 13 0 13-1 0-10-12-7-12-10-1-10 7 0 11-6 7-15-3-8-2-15 3-15s7-13 6-30c-1-16 1-30 4-30 4 0 8-19 10-42 3-57 6-76 14-84 3-4 2-15-4-25-7-14-6-19 3-19s9-3 0-12c-8-8-8-15-1-24 7-8 7-14-1-19s-8-11 1-21c6-8 7-14 2-14-11 0-11-36 0-46 4-4 2-13-4-20-6-8-9-20-6-27 3-8 1-20-3-28-5-8-4-19 2-26 7-9 6-14-4-18-9-4-13-18-12-41 2-25 0-33-9-27-7 4-5-2 3-12 12-15 12-17 1-10-11 6-13 2-9-19 4-18 1-29-8-33-8-3-11-9-8-14 3-6-2-21-11-36-9-14-12-22-6-19 6 4 11 2 11-3 0-6-5-11-11-11-5 0-7-4-4-10 3-5 1-10-5-10s-8-4-5-10c3-5 2-10-4-10-5 0-8-11-7-25 2-13 0-22-4-20-8 5-24-24-22-37 1-5-3-8-9-8-5 0-7-5-4-10 3-6 0-13-9-16-8-3-12-12-9-20 3-7-2-17-11-20s-13-10-10-15 0-9-6-9-8-5-5-10 2-10-4-10c-5 0-13-9-16-20-4-11-11-18-16-15-5 4-9-1-9-9 0-9-5-16-12-16-6 0-8-3-5-7 4-3-7-19-25-35-17-15-28-28-24-28s-11-16-35-36c-41-34-69-58-110-96-10-10-19-15-19-10-1 4-10-4-21-18-12-14-23-24-25-22-10 6-23 1-44-18-13-12-29-19-36-16s-15-2-18-10c-3-9-10-12-16-9-5 3-10 1-10-4 0-6-3-10-7-9-5 1-18-3-29-10-12-6-24-8-28-5-3 3-6 1-6-6s-4-10-9-6c-5 3-17-2-25-11-9-8-16-10-16-4 0 8-6 8-21 0-11-6-30-14-42-16-32-7-51-12-57-14-3-1-13-2-22-1-10 1-18-1-18-6 0-4-27-8-60-8-34 0-60-4-60-10 0-5-5-3-10 5s-10 10-10 5c0-6-22-10-50-9-34 1-48-2-44-10 3-6-2-2-10 8-9 11-16 14-16 7s-4-10-8-7c-5 3-32 6-60 7-29 2-52 6-52 11 0 4-12 3-26-2-16-7-23-7-19 0 5 8-31 15-57 11-5 0-8 3-8 8s-11 8-24 5c-15-2-26 2-30 11-4 12-10 13-25 6-15-8-20-7-25 5-3 8-11 14-18 12-7-1-23 3-36 10-12 7-27 10-32 7s-13 3-19 12c-6 10-11 14-11 9s-10-1-22 10c-14 13-19 14-14 4 4-8 0-6-8 4-9 11-16 16-16 12s-7 0-16 8c-8 9-20 14-25 11-5-4-9-2-9 3s-12 14-26 20c-15 7-22 17-18 24 4 6 3 8-4 4-6-3-18 1-26 10-9 8-16 13-16 10s-23 17-51 44c-28 28-56 50-61 50s-7 4-4 8c2 4-9 18-25 31s-29 27-29 32c0 9-6 16-58 74-12 14-17 25-11 25 7 0 2 8-9 19-12 10-19 21-15 25 3 3 1 6-6 6s-11 6-8 14-1 17-9 20c-9 3-12 10-9 16 3 5 1 10-5 10s-8 4-5 10c3 5 2 10-3 10-8 0-23 35-26 62-1 3-4 10-8 14-5 4-8 16-8 26s-4 18-9 18-8 12-9 26c0 15-6 30-13 35-10 6-10 9-2 9 12 0 12 6-3 45-11 32-14 48-15 82-1 18-5 31-9 28-9-6-5 28 5 45 3 6-2 10-11 10-14 0-15 3-6 12 7 7 8 17 2 29-7 12-6 20 0 24 8 5 7 11-1 21-6 8-7 14-2 14 11 0 9 42-2 59-3 6-2 11 4 11 10 0 10 18-2 36-4 7 0 17 8 24s12 17 8 24c-11 17-12 37-2 30 5-3 9 2 9 11 0 10-5 13-12 9-10-6-10-5-1 7 7 8 13 32 15 52 1 20 5 37 9 37s6 8 4 18c-1 9 3 23 9 31 9 12 8 13-2 7-11-7-12-4-3 13 7 11 17 21 24 21s6 4-3 10-11 10-3 10c7 0 10 7 7 15-4 8-2 15 3 15s10 8 11 18c4 42 9 56 20 60 7 2 12 12 12 23 0 10 5 19 12 19 6 0 8 3 5 7-4 3 3 18 15 31 13 14 17 22 11 18-20-11-15 1 12 30 15 16 23 34 20 43-3 8-3 12 1 8s21 12 38 36c17 23 36 46 43 50 8 5 11 12 8 18-4 5-2 9 3 9 14 0 81 68 74 75-3 3-1 5 5 5 5 0 23 11 38 24 16 14 33 23 37 20 5-3 7 0 6 8-2 7 3 12 10 10 6-1 12 2 12 7 0 10 69 52 83 51 4 0 17 9 28 22s18 18 15 11c-4-6 13-2 36 10 24 12 45 25 46 30 2 4 8 7 13 7 6 0 7-6 4-12-4-7 0-5 8 4 8 10 17 15 20 11 4-3 7-2 7 3s9 11 20 12 29 3 40 4 20 5 20 8c0 6 17 10 53 11 9 0 17 4 17 8s10 7 23 6c12-1 30 2 39 6 10 6 19 5 23-1 4-7 13-6 24 2 20 14 208 17 229 4z" transform="matrix(.1 0 0 -.1 0 512)"/></svg>